<svg xmlns="http://www.w3.org/2000/svg" enable-background="new 0 0 100 100" viewBox="0 0 100 100" id="cryptography"><path d="M51.5,76v14c0,0.83-0.67,1.5-1.5,1.5s-1.5-0.67-1.5-1.5V76c0-0.83,0.67-1.5,1.5-1.5S51.5,75.17,51.5,76z M70,82.5h-6.5V76
	c0-0.83-0.67-1.5-1.5-1.5s-1.5,0.67-1.5,1.5v8c0,0.83,0.67,1.5,1.5,1.5h8c0.83,0,1.5-0.67,1.5-1.5S70.83,82.5,70,82.5z M38,74.5
	c-0.83,0-1.5,0.67-1.5,1.5v6.5H30c-0.83,0-1.5,0.67-1.5,1.5s0.67,1.5,1.5,1.5h8c0.83,0,1.5-0.67,1.5-1.5v-8
	C39.5,75.17,38.83,74.5,38,74.5z M24,48.5H10c-0.83,0-1.5,0.67-1.5,1.5s0.67,1.5,1.5,1.5h14c0.83,0,1.5-0.67,1.5-1.5
	S24.83,48.5,24,48.5z M24,36.5h-6.5V30c0-0.83-0.67-1.5-1.5-1.5s-1.5,0.67-1.5,1.5v8c0,0.83,0.67,1.5,1.5,1.5h8
	c0.83,0,1.5-0.67,1.5-1.5S24.83,36.5,24,36.5z M24,60.5h-8c-0.83,0-1.5,0.67-1.5,1.5v8c0,0.83,0.67,1.5,1.5,1.5s1.5-0.67,1.5-1.5
	v-6.5H24c0.83,0,1.5-0.67,1.5-1.5S24.83,60.5,24,60.5z M90,48.5H76c-0.83,0-1.5,0.67-1.5,1.5s0.67,1.5,1.5,1.5h14
	c0.83,0,1.5-0.67,1.5-1.5S90.83,48.5,90,48.5z M76,39.5h8c0.83,0,1.5-0.67,1.5-1.5v-8c0-0.83-0.67-1.5-1.5-1.5s-1.5,0.67-1.5,1.5
	v6.5H76c-0.83,0-1.5,0.67-1.5,1.5S75.17,39.5,76,39.5z M84,60.5h-8c-0.83,0-1.5,0.67-1.5,1.5s0.67,1.5,1.5,1.5h6.5V70
	c0,0.83,0.67,1.5,1.5,1.5s1.5-0.67,1.5-1.5v-8C85.5,61.17,84.83,60.5,84,60.5z M29.5,66.01V37.99c0-2.48,2.02-4.49,4.49-4.49h2.51
	V22c0-7.44,6.06-13.5,13.5-13.5S63.5,14.56,63.5,22v11.5h2.51c2.48,0,4.49,2.02,4.49,4.49v28.01c0,2.48-2.02,4.49-4.49,4.49H33.99
	C31.52,70.5,29.5,68.48,29.5,66.01z M54,53c0-2.21-1.79-4-4-4s-4,1.79-4,4c0,1.68,1.04,3.11,2.5,3.7V60c0,0.83,0.67,1.5,1.5,1.5
	s1.5-0.67,1.5-1.5v-3.3C52.96,56.11,54,54.68,54,53z M39.5,33.5h21V22c0-5.79-4.71-10.5-10.5-10.5S39.5,16.21,39.5,22V33.5z"></path></svg>