<svg xmlns="http://www.w3.org/2000/svg" viewBox="0 0 64 64" id="formula"><path fill="#f0f8ff" fill-rule="evenodd" d="m45,59c-7.72,0-14-6.28-14-14,0-5.92,3.75-11.23,9.33-13.2l.67-.24v-15.56h8v15.56l.67.24c5.58,1.97,9.33,7.28,9.33,13.2,0,7.72-6.28,14-14,14Z"></path><path fill="#84d8c8" fill-rule="evenodd" d="m45,59c-7.72,0-14-6.28-14-14,0-1.45.22-2.88.66-4.25.15-.12.28-.21.34-.25.84-.49,1.62-1.01,2.36-1.51.66-.44,1.28-.86,1.86-1.19.95-.54,1.73-.8,2.39-.8.9,0,1.84.29,2.83.59l.39.12c.61.19,1.38.42,2.18.42.34,0,.67-.04.99-.13.96-.25,1.7-.74,2.42-1.22l.24-.16c1.52-.99,3.02-1.84,5.84-2.12.13,0,.46.04.9.13,2.93,2.65,4.6,6.42,4.6,10.37,0,7.72-6.28,14-14,14Z"></path><polygon fill="#f47b67" fill-rule="evenodd" points="14 21 14 10 23 5 32 10 32 21 23 26.5 14 21"></polygon><polygon fill="#ffd385" fill-rule="evenodd" points="5 37.5 5 26.5 14 21 23 26.5 23 37.5 14 43 5 37.5"></polygon><path fill="#5b57aa" fill-rule="evenodd" d="m47.5,55c-1.1,0-2-.9-2-2s.9-2,2-2,2,.9,2,2-.9,2-2,2Zm-8-4c-1.1,0-2-.9-2-2s.9-2,2-2,2,.9,2,2-.9,2-2,2Zm8-6c-1.1,0-2-.9-2-2s.9-2,2-2,2,.9,2,2-.9,2-2,2Zm-33.5-11c-1.1,0-2-.9-2-2s.9-2,2-2,2,.9,2,2-.9,2-2,2Zm9-16c-1.1,0-2-.9-2-2s.9-2,2-2,2,.9,2,2-.9,2-2,2Z"></path><path fill="#d6e9fc" fill-rule="evenodd" d="m40,16c-1.1,0-2-.9-2-2s.9-2,2-2h10c1.1,0,2,.9,2,2s-.9,2-2,2h-10Z"></path><path fill-rule="evenodd" d="m40,17v13.86c-5.82,2.06-10,7.62-10,14.14,0,8.28,6.72,15,15,15s15-6.72,15-15c0-6.53-4.18-12.08-10-14.14v-13.86h0c1.66,0,3-1.34,3-3s-1.34-3-3-3h-10c-1.66,0-3,1.34-3,3s1.34,3,3,3h0Zm13.82,18.45c-.07.02-.14.04-.21.04-2.71.28-4.17,1.17-5.39,1.97-.98.64-1.85,1.21-2.95,1.5-1.23.33-2.47.08-3.71-.3-.97-.29-1.94-.67-2.93-.67-.79,0-1.6.46-2.5,1.03-1.09.69-2.28,1.57-3.59,2.32-.34,1.16-.52,2.38-.52,3.64,0,7.17,5.83,13,13,13s13-5.83,13-13c0-3.77-1.61-7.18-4.18-9.55h0Zm-9.18,8.45l-3.47,2.61c-.48-.32-1.05-.5-1.66-.5-1.66,0-3,1.34-3,3s1.34,3,3,3c.81,0,1.54-.32,2.08-.84l2.94,1.47c-.01.12-.02.24-.02.37,0,1.66,1.34,3,3,3s3-1.34,3-3c0-1.31-.84-2.42-2-2.83v-4.34c1.16-.41,2-1.52,2-2.83,0-1.66-1.34-3-3-3s-3,1.34-3,3c0,.31.05.61.14.9h0Zm-3.64,10.1c.55,0,1,.45,1,1s-.45,1-1,1-1-.45-1-1,.45-1,1-1h0Zm6.5-2c.55,0,1,.45,1,1s-.45,1-1,1-1-.45-1-1,.45-1,1-1h0Zm-1.66-6.5l-3.47,2.61c.09.28.14.59.14.9,0,.13,0,.25-.02.37l2.94,1.47c.31-.29.67-.52,1.08-.67v-4.34c-.24-.08-.46-.2-.66-.33h0Zm-6.34,2.5c.55,0,1,.45,1,1s-.45,1-1,1-1-.45-1-1,.45-1,1-1h0Zm15.5-3c.55,0,1,.45,1,1s-.45,1-1,1-1-.45-1-1,.45-1,1-1h0ZM14.05,8.83l-2.49-1.66c-.46-.31-1.08-.18-1.39.28-.31.46-.18,1.08.28,1.39l2.55,1.7v9.9l-8.52,5.21c-.3.18-.48.51-.48.85v11c0,.35.18.67.48.85l8.52,5.21v2.44c0,.55.45,1,1,1s1-.45,1-1v-2.44l7.98-4.87,2.47,1.65c.46.31,1.08.18,1.39-.28.31-.46.18-1.08-.28-1.39l-2.55-1.7v-9.9l7.98-4.87,2.47,1.65c.46.31,1.08.18,1.39-.28.31-.46.18-1.08-.28-1.39l-2.55-1.7v-9.93l2.55-1.7c.46-.31.58-.93.28-1.39-.31-.46-.93-.58-1.39-.28l-2.49,1.66-8.47-4.7c-.3-.17-.67-.17-.97,0l-8.47,4.7h0Zm21.95,34.17c.55,0,1,.45,1,1s-.45,1-1,1-1-.45-1-1,.45-1,1-1h0Zm11.5-1c.55,0,1,.45,1,1s-.45,1-1,1-1-.45-1-1,.45-1,1-1h0ZM14,22.17l8,4.89v9.88l-8,4.89-8-4.89v-9.88l8-4.89h0Zm5,9.83v3.43l-5.5,3.21c-.48.28-.64.89-.36,1.37.28.48.89.64,1.37.36l6-3.5c.31-.18.5-.51.5-.86v-4c0-.55-.45-1-1-1s-1,.45-1,1h0Zm33,6c.55,0,1,.45,1,1s-.45,1-1,1-1-.45-1-1,.45-1,1-1h0Zm-10-21v14.58c0,.44-.29.83-.71.96-3.02.9-5.57,2.86-7.24,5.46.58-.39,1.14-.76,1.68-1.07,1.01-.58,1.98-.93,2.89-.93,1.18,0,2.35.4,3.51.75.88.27,1.75.51,2.62.28.9-.24,1.58-.73,2.38-1.25,1.13-.73,2.42-1.53,4.47-1.99-.9-.53-1.86-.95-2.88-1.25-.42-.13-.71-.52-.71-.96v-14.58h-6ZM9,35v-6.43l5-2.92,5.5,3.21c.48.28,1.09.12,1.37-.36.28-.48.12-1.09-.36-1.37l-6-3.5c-.31-.18-.7-.18-1.01,0l-6,3.5c-.31.18-.5.51-.5.86v7c0,.55.45,1,1,1s1-.45,1-1h0Zm5-6c-1.66,0-3,1.34-3,3s1.34,3,3,3,3-1.34,3-3-1.34-3-3-3h0Zm0,2c.55,0,1,.45,1,1s-.45,1-1,1-1-.45-1-1,.45-1,1-1h0ZM23,6.14l8,4.44v9.85l-8,4.89-8-4.89v-9.85l8-4.44h0Zm5,5.86v6.93l-5.5,3.21c-.48.28-.64.89-.36,1.37.28.48.89.64,1.37.36l6-3.5c.31-.18.5-.51.5-.86v-7.5c0-.55-.45-1-1-1s-1,.45-1,1h0Zm-10,7v-6.43l5.5-3.21c.48-.28.64-.89.36-1.37-.28-.48-.89-.64-1.37-.36l-6,3.5c-.31.18-.5.51-.5.86v7c0,.55.45,1,1,1s1-.45,1-1h0Zm5-6c-1.66,0-3,1.34-3,3s1.34,3,3,3,3-1.34,3-3-1.34-3-3-3h0Zm0,2c.55,0,1,.45,1,1s-.45,1-1,1-1-.45-1-1,.45-1,1-1h0Zm16-1c0-.55.45-1,1-1h10c.55,0,1,.45,1,1s-.45,1-1,1h-10c-.55,0-1-.45-1-1h0Z"></path></svg>