<svg xmlns="http://www.w3.org/2000/svg" width="512" height="512" id="layers"><path d="M252.808 509.846C245.385 509.791 241.699 508.858 234.529 506.674L183.609 488.512L94.4042 447.745L49.8776 423.809C41.4282 418.943 32.3214 414.006 25 407.531C8.74796 393.158 25.1632 385.811 37.9953 381.115C41.2186 379.935 44.4622 378.64 47.7814 377.763C42.1966 375.265 36.9625 372.165 31.9044 368.722C10.4601 354.124 15.2732 343.943 36.7972 335.9L47.2523 332.081C43.1705 330.248 39.3193 327.943 35.5243 325.581C12.7146 311.382 11.5323 300.782 36.9028 291.362L47.1878 287.493L34.3733 279.786C13.2042 265.971 10.6092 254.56 35.4294 245.167L45.7659 241.165C38.605 238.002 22.1638 226.757 19.0632 220.717C11.3968 205.784 36.8634 199.86 46.169 195.227C42.8851 193.777 39.8278 191.857 36.75 190.023C14.7818 176.931 8.14813 165.033 34.6773 154.021L45.6284 149.524C35.9565 144.601 17.644 134.139 17.2061 123C16.5658 106.714 46.1495 91.8344 58.777 84.4212L106.127 58.7907L158.496 33.5445L216.975 11.0714L237.793 4.89976C243.455 3.48131 248.825 2.31527 254.691 2.10798C262.8 1.74767 269.805 3.58178 277.607 5.57417C297.515 10.6586 317.228 18.0836 336.217 25.9059L376.222 43.4359L430.531 71.1228L472.75 96.2441C481.751 102.154 498.017 112.006 494.405 124.841L494.283 125.25C490.759 137.325 476.535 143.322 466.692 149.285C475.024 152.955 491.683 156.876 493.747 166.483L493.826 166.875C496.479 179.375 475.961 190.428 466.337 195.241C475.414 198.843 497.23 204.87 493.416 218.325L492.913 219.954C489.966 227.79 473.966 237.494 465.948 241.054L473.08 243.734C478.603 246.052 484.863 248.648 489.449 252.527C504.23 265.03 477.423 282.2 466.09 286.314L478.29 291.822C512.42 307.49 482.68 321.274 466.309 331.919L481.694 338.101C509.6 350.976 482.673 370.709 464.7 376.749L467.292 377.425C474.95 379.926 498.001 387.241 493.41 399.282L493.27 399.625C490.173 407.432 480.725 412.595 473.944 416.683L457.463 426.266L376.713 467.305L315.993 492.911L289.06 502.661C275.601 507.182 266.941 510.306 252.808 509.846ZM256.186 17.873C237.962 19.0399 212.313 28.9307 195.616 35.5476L164.711 48.2047L94.25 82.7412L68.1224 97.2266C55.6883 104.311 43.1102 111.43 32.6219 121.307C50.6147 138.229 89.5568 155.491 111.737 166.164L133.814 176.847L209.335 208.448C221.753 213.034 243.25 221.408 256.607 221.011L257.031 220.996C272.299 219.448 287.325 213.526 301.683 208.324C341.827 193.78 380.573 176.189 418.785 157.193L440.912 146.226L463.249 133.325C468.885 129.812 474.908 126.097 479.582 121.361C470.674 113.701 460.896 107.565 450.89 101.462L414.08 80.6462L352.625 50.2547L310.016 32.8539L269.02 20.0533C264.832 19.0081 260.515 17.9981 256.186 17.873ZM59.5908 158.171C52.0493 162.972 43.3746 167.54 34.8054 170.214C56.2067 183.99 78.9306 195.794 101.746 207.019L168.679 237.837L228.914 260.753C241.091 264.73 251.569 268.471 264.38 265.719C278.694 262.644 292.83 256.993 306.531 251.941C355.994 233.7 403.954 210.931 450.422 186.091L470 174.747C472.179 173.4 474.968 171.971 476.775 170.166L476.399 170.103C473.518 169.604 470.798 168.086 468.221 166.756L455.759 160.122C453.442 158.948 453.039 158.138 450.704 159.212L420.509 174.445L348.845 206.895L306.307 223.655C257.828 240.833 252.904 241.264 203.476 223.207C169.943 210.958 137.125 196.579 105.001 181.018L59.5908 158.171ZM452.117 203.675L409.385 224.892L329.483 260.386L302 270.503C274.635 280.315 259.797 286.988 230.455 278.087L208.395 270.615L60.1651 203.853C52.3467 208.579 43.8023 213.988 34.7685 215.9L61.3447 231.325L121.365 261.843L208.308 299.121L231.872 307.431C241.999 310.701 252.494 314.078 263.165 311.443L298.912 300.411L338.831 284.719L434.801 239.825C446.203 233.949 466.333 224.238 476.173 216.112C466.536 213.776 460.295 207.293 452.117 203.675ZM60.3009 249.318C52.2908 254.44 44.0107 258.847 34.9478 261.814L78.7487 286.267L151.009 320.89L204.814 343.275C216.464 347.725 228.405 352.215 240.5 355.273C251.325 358.01 257.238 358.683 268.279 355.568L300.287 345.511L359.925 320.759L417.058 294.447L450.42 277.349L476.792 262.172C474.526 261.44 472.376 260.585 470.237 259.539L454.757 251.324C452.355 250.044 452.23 249.171 449.771 250.282L351.508 296.535L326.585 306.962L278.75 323.772C260.486 329.21 251.342 329.694 232.734 324.218L218.049 319.752C204.108 315.261 190.441 309.526 176.898 303.969L108.636 273.563L66.39 252.362C64.4539 251.346 62.3573 250.031 60.3009 249.318ZM61.2517 295.311C53.1692 300.601 45.2185 304.485 36.2836 307.937L78.543 331.748L163.224 371.603L213.878 391.799C230.394 397.749 247.984 406.193 265.641 401.686L279.472 397.736C294.116 393.281 308.247 387.847 322.436 382.141L340.504 374.875L415.294 340.707L449.081 323.639L476.053 308.04L451.354 295.471L400.939 319.806L342.175 345.719C324.24 353.193 306.408 360.345 287.907 366.327L270.731 371.329C247.457 377.126 233.357 370.31 211.289 362.494L178.073 350.014L61.2517 295.311ZM60.6558 340.601C53.2572 345.831 45.0336 350.719 36.1953 353.023L58 365.748L115.69 395.05C147.933 410.7 180.373 425.497 214.127 437.621C226.135 441.933 238.828 447.268 251.625 448.706C267.542 450.495 298.924 436.975 313.578 431.196L341.157 420.147L382.582 401.229L449.828 367.882L476.266 353.378C469.269 350.914 462.39 347.123 456.122 343.18L453.091 341.166C450.919 339.647 446.519 342.93 443.808 344.231L424.534 353.783L326.781 397.71L293.647 409.945C267.967 418.65 256.975 422.42 230.626 414.415L209.235 407.308L60.6558 340.601ZM451.873 385.375L378.097 421.234L333.691 440.297L287.045 457.724L271.928 462.173C250.908 467.854 235.557 462.009 215.883 455.234L61.4415 386.17C53.7628 391.215 46.018 394.438 37.5858 397.995L63.6209 413.288L143.312 453.666C168.278 465.179 193.5 475.809 219.488 484.825C229.708 488.37 240.554 492.898 251.39 494.167C265.639 495.835 291.868 484.723 305.297 479.786L329.574 470.668L406.489 435.227L432.969 421.802L475.234 397.702C467.919 395.35 461.512 391.434 455.323 386.981C454.171 386.152 453.389 384.922 451.873 385.375Z"></path></svg>