<svg xmlns="http://www.w3.org/2000/svg" viewBox="0 0 327.1 337.53" id="adorable-and-simple-house"><g><g><polygon fill="#fff" points="128.03 337.53 128.01 337.14 36.02 337.14 30.48 219.69 15.22 219.68 6.77 179.35 28.58 179.2 25.03 103.74 0 103.74 0 62.25 29.77 62.25 74.5 0 258.18 0 301.7 62.25 327.1 62.25 327.1 103.74 304.97 103.74 301.51 177.29 323.4 177.14 310.69 219.8 299.51 219.79 293.98 337.14 200.32 337.14 200.3 337.53 128.03 337.53"></polygon><polygon fill="#fff" points="291.42 89.54 312.9 89.54 312.9 76.46 294.3 76.46 250.78 14.2 81.78 14.2 37.05 76.46 14.2 76.46 14.2 89.54 38.58 89.54 40.04 120.69 43.46 193.3 24.23 193.43 26.76 205.49 44.03 205.49 45.48 236.33 49.56 322.94 124.94 322.94 141.59 322.94 141.61 323.33 186.57 323.33 186.59 322.94 280.43 322.94 284.64 233.59 285.96 205.59 300.11 205.59 304.31 191.48 286.62 191.6 290.07 118.35 291.42 89.54"></polygon><polygon fill="#4f9bc1" points="32.35 83 81.78 14.2 250.78 14.2 298.87 83 165 123.08 32.35 83"></polygon><path fill="#3f89a5" d="M115.43,51.7c9.36,7.9,21.75,11.36,33.94,12.49A107.89,107.89,0,0,0,216.57,48C206.78,62.45,195,75.43,180.94,85.77c-12.25-1.34-24.24-2.29-36.49-3.63C130.65,80.63,123.31,63.14,115.43,51.7Z"></path><polygon fill="#f9bfc0" points="291.73 83 290.06 118.35 286.32 197.85 284.64 233.59 280.43 322.94 49.56 322.94 45.48 236.33 43.68 197.85 40.04 120.69 38.27 83 291.73 83"></polygon><polygon fill="#f9bfc0" points="73.22 83 108.72 48.6 144.23 83 109.22 105.05 73.22 83"></polygon><polygon fill="#f9bfc0" points="183.98 83 219.49 48.6 255 83 219.99 105.05 183.98 83"></polygon><path fill="#eaacac" d="M122.75 120.06c0-13-18.45-26.87-31.45-26.87s-13.77 88.89-13.77 88.89h43.18L129 171.21l-6.3-49.72C122.73 121 122.75 120.54 122.75 120.06zM234.74 120.06c0-13-18.44-26.87-31.45-26.87s-13.77 88.89-13.77 88.89h43.19L241 171.21l-6.3-49.72C234.72 121 234.74 120.54 234.74 120.06zM75.65 80.64l-1.66 32a182.59 182.59 0 00-33.95 8L38.27 83zM186.41 80.64l-1.13 26.44q-21.18-.66-42.38 0l-1-24.61zM291.73 83l-1.66 35.35q-17.94-3.33-36-5.69l-1.4-28.17z"></path><polygon fill="#7f8080" points="312.9 89.54 252.35 89.54 219.49 57.71 186.63 89.54 141.59 89.54 108.72 57.71 75.86 89.54 14.2 89.54 14.2 76.46 70.57 76.46 108.72 39.5 146.88 76.46 181.34 76.46 219.49 39.5 257.65 76.46 312.9 76.46 312.9 89.54"></polygon><polygon fill="#eaacac" points="103.47 247.26 111.24 301.84 103.47 313.29 66.3 313.29 74.06 240.82 103.47 247.26"></polygon><polygon fill="#eaacac" points="245.79 247.26 253.56 301.84 245.79 313.29 208.61 313.29 216.38 240.82 245.79 247.26"></polygon><polygon fill="#676767" points="222.48 245.82 222.48 295.73 247.45 295.73 247.45 246.71 222.48 245.82"></polygon><path fill="#eaeaea" d="M216.38,239.49v62.35h37.18v-61Zm31.07,28.23h-25v-21.9l25,.89Zm-25,7.1v-1h25v21.9h-25Z"></path><path fill="#eaacac" d="M286.32,197.85l-1.68,35.75a191.78,191.78,0,0,0-26.48-8A385.59,385.59,0,0,0,45.48,236.33l-1.8-38.48Z"></path><polygon fill="#7f8080" points="300.11 205.59 26.76 205.49 24.23 193.43 304.31 191.48 300.11 205.59"></polygon><polygon fill="#eaacac" points="167.39 301.83 160.11 322.94 124.94 322.94 137.83 239.29 167.39 301.83"></polygon><polygon fill="#eaeaea" points="137.83 239.29 141.61 323.33 186.57 323.33 189.27 241.14 137.83 239.29"></polygon><path fill="#ccc" d="M183,247l-.55,16.83a81.91,81.91,0,0,0-37.89-11.51l-.3-6.72Z"></path><ellipse cx="151.17" cy="294.42" fill="#9e9e9e" rx="3.15" ry="5.3"></ellipse><path fill="#eaeaea" d="M131,109.2c0-13-10.55-26.2-23.55-26.2S83.94,96.19,83.94,109.2c0,.45,0,.9,0,1.34l1.84,60.67H129l2-60.59C131,110.15,131,109.67,131,109.2Z"></path><path fill="#676767" d="M91.74,165.11,90.07,110.2c0-.33,0-.67,0-1,0-9.3,7.62-20.1,17.45-20.1s17.44,10.8,17.44,20.1c0,.35,0,.71,0,1.06l-1.81,54.85Z"></path><rect width="6.1" height="82.83" x="104.43" y="86.14" fill="#eaeaea"></rect><rect width="40.08" height="6.1" x="88.12" y="124.5" fill="#eaeaea"></rect><path fill="#eaeaea" d="M243,109.2c0-13-10.54-26.2-23.55-26.2s-23.55,13.19-23.55,26.2c0,.45,0,.9,0,1.34l1.84,60.67H241l2-60.59C243,110.15,243,109.67,243,109.2Z"></path><path fill="#676767" d="M203.74,165.11l-1.66-54.91c0-.33,0-.67,0-1,0-9.3,7.62-20.1,17.44-20.1s17.45,10.8,17.45,20.1c0,.35,0,.71,0,1.06l-1.8,54.85Z"></path><rect width="6.1" height="82.83" x="216.44" y="86.14" fill="#eaeaea"></rect><rect width="40.08" height="6.1" x="200.13" y="124.5" fill="#eaeaea"></rect><polygon fill="#676767" points="105.14 245.82 105.14 295.73 80.17 295.73 80.17 246.71 105.14 245.82"></polygon><path fill="#eaeaea" d="M74.06,240.82v61h37.18V239.49Zm6.11,5.89,25-.89v21.9h-25Zm25,49h-25v-21.9h25v21.9Z"></path></g></g></svg>