<svg xmlns="http://www.w3.org/2000/svg" viewBox="0 0 512 512" id="pill"><path fill="none" d="M270.18,69.92A7.5,7.5,0,1,0,281,80.34a100.9,100.9,0,0,1,142.52-2.49,7.5,7.5,0,1,0,10.42-10.79A115.92,115.92,0,0,0,270.18,69.92Z"></path><path fill="#231f20" d="M43.76 268.8a139.57 139.57 0 0 0 3.45 197.36L53.26 472a139.74 139.74 0 0 0 197.36-3.44L351.27 364.33 147.9 161zM507.39 143.81a138.66 138.66 0 0 0-42.6-98L458.74 40c-55.37-53.46-143.9-51.92-197.36 3.44L158.32 150.16 361.69 353.53 468.24 243.2A138.66 138.66 0 0 0 507.39 143.81zM434.1 77.67a7.5 7.5 0 0 1-10.61.18A100.9 100.9 0 0 0 281 80.34a7.5 7.5 0 1 1-10.79-10.42 115.92 115.92 0 0 1 163.73-2.86A7.5 7.5 0 0 1 434.1 77.67z"></path></svg>